<?xml version="1.0" encoding="UTF-8" standalone="no"?>
<svg
   xmlns:dc="http://purl.org/dc/elements/1.1/"
   xmlns:cc="http://creativecommons.org/ns#"
   xmlns:rdf="http://www.w3.org/1999/02/22-rdf-syntax-ns#"
   xmlns:svg="http://www.w3.org/2000/svg"
   xmlns="http://www.w3.org/2000/svg"
   xmlns:sodipodi="http://sodipodi.sourceforge.net/DTD/sodipodi-0.dtd"
   xmlns:inkscape="http://www.inkscape.org/namespaces/inkscape"
   viewBox="0 0 170 44"
   height="44"
   width="170"
   id="svg2"
   version="1.1"
   sodipodi:docname="clients-2.svg"
   inkscape:version="0.92.1 r15371">
  <sodipodi:namedview
     pagecolor="#ffffff"
     bordercolor="#666666"
     borderopacity="1"
     objecttolerance="10"
     gridtolerance="10"
     guidetolerance="10"
     inkscape:pageopacity="0"
     inkscape:pageshadow="2"
     inkscape:window-width="1680"
     inkscape:window-height="987"
     id="namedview6"
     showgrid="false"
     inkscape:pagecheckerboard="true"
     fit-margin-top="0"
     fit-margin-left="0"
     fit-margin-right="0"
     fit-margin-bottom="0"
     inkscape:zoom="2.3886784"
     inkscape:cx="80.169852"
     inkscape:cy="10.526349"
     inkscape:window-x="-4"
     inkscape:window-y="-4"
     inkscape:window-maximized="1"
     inkscape:current-layer="svg2" />
  <metadata
     id="metadata8">
    <rdf:RDF>
      <cc:Work
         rdf:about="">
        <dc:format>image/svg+xml</dc:format>
        <dc:type
           rdf:resource="http://purl.org/dc/dcmitype/StillImage" />
        <dc:title></dc:title>
      </cc:Work>
    </rdf:RDF>
  </metadata>
  <defs
     id="defs6" />
  <path
     id="path12"
     d="m 0,42.892736 c 0,-0.608993 4.4132867,-9.50897 9.8073032,-19.777729 l 9.8073018,-18.6704682 -7.686803,-0.0772 c -7.5028716,-0.07536 -7.6868057,0.04782 -7.6868057,5.147775 0,3.2511002 -0.6008083,5.2249842 -1.590374,5.2249842 -1.70664599,0 -1.9360266,-2.469511 -0.9221133,-9.9274692 0.6193425,-4.55564597 1.0492859,-4.70248497 13.768758,-4.70248497 7.2212,0 13.129454,0.687702 13.129454,1.52822597 0,0.840525 -4.403861,10.2454952 -9.786362,20.8999342 L 9.0539963,41.910007 h 8.7261137 8.726113 v -6.269981 c 0,-3.448489 0.477113,-6.26998 1.060249,-6.26998 0.583138,0 1.060249,3.29174 1.060249,7.314977 V 44 H 14.313362 C 6.4410128,44 0,43.501733 0,42.89274 Z m 40.819584,-0.427878 c 2.752058,-0.749442 4.018425,-3.662015 9.396076,-21.610454 3.418432,-11.4093492 6.758215,-20.73237317 7.421742,-20.71783117 0.663528,0.01463 3.950052,9.35708897 7.303388,20.76121517 5.052093,17.181315 6.596562,20.88397 9.012116,21.605344 1.603329,0.478811 -1.617421,0.870568 -7.157223,0.870568 -5.539801,0 -8.760307,-0.391803 -7.15668,-0.87067 6.254683,-1.86775 2.130842,-8.953001 -5.210929,-8.953001 -4.435934,0 -5.807629,0.830994 -6.680869,4.047377 -0.968181,3.56608 -0.688937,4.147637 2.348257,4.890507 1.89591,0.463721 -0.131231,0.84313 -4.504758,0.84313 -4.373527,0 -6.520531,-0.389783 -4.77112,-0.866185 z M 56.672367,20.815844 c -0.932679,-3.555311 -1.805002,-6.141678 -1.938496,-5.747482 -0.133494,0.394198 -1.063537,3.30309 -2.066761,6.464205 l -1.824045,5.747481 h 3.76254 3.762541 z M 89.325973,42.50303 92.241657,41.632357 V 22.96124 c 0,-18.5225302 -0.0211,-18.6711182 -2.650622,-18.6711182 -1.457842,0 -2.650622,-0.940497 -2.650622,-2.089994 0,-3.294203 28.841007,-2.72516897 31.158147,0.614751 2.67894,3.861411 1.94989,16.3024042 -1.13171,19.3121302 l -2.31116,2.257255 2.34205,8.230394 c 1.64314,5.77428 3.28203,8.627351 5.49191,9.56059 2.19529,0.927079 1.0608,1.405131 -3.74359,1.57747 l -6.89343,0.247278 -2.53108,-9.404971 c -2.09713,-7.792536 -3.05113,-9.40497 -5.56448,-9.40497 -2.82362,0 -3.03342,0.568602 -3.03342,8.221152 0,7.364128 0.30394,8.311914 2.91569,9.091823 1.60363,0.478867 -1.61688,0.87067 -7.156687,0.87067 -5.5398,0 -8.760307,-0.391803 -7.15668,-0.87067 z M 112.21409,12.886453 c 0.45476,-6.3400852 -1.32639,-8.5241432 -6.98438,-8.5643272 -4.45862,-0.03166 -4.50606,0.04615 -4.50606,7.3921942 v 7.424199 l 5.56631,-0.631721 c 4.95067,-0.561851 5.60588,-1.183465 5.92413,-5.620345 z m 24.80291,29.29877 c 2.23637,-1.019685 4.2933,-5.803889 9.0359,-21.016616 3.37722,-10.83302 6.66549,-20.0414312 7.30728,-20.46313717 0.64179,-0.421705 3.97087,8.62824897 7.39797,20.11100917 4.86021,16.284595 6.8142,21.062489 8.88168,21.717483 1.45784,0.461857 -1.64339,0.839738 -6.89162,0.839738 -5.24823,0 -8.24503,-0.388977 -6.65956,-0.864392 2.55707,-0.766756 2.73784,-1.321574 1.60039,-4.911836 -2.2215,-7.012053 -14.55543,-4.89216 -14.55543,2.501714 0,0.843244 1.31205,1.924974 2.91568,2.403844 1.60363,0.478867 -0.4241,0.900312 -4.50606,0.93654 -4.33903,0.03852 -6.21906,-0.482496 -4.52623,-1.254347 z m 16.00418,-20.652656 c -1.00322,-3.161115 -1.93327,-6.070007 -2.06675,-6.464205 -0.1335,-0.394196 -1.00582,2.192171 -1.9385,5.747482 l -1.69578,6.464204 h 3.76253 3.76255 z"
     style="fill:#fefefe;stroke-width:1.48859441"
     inkscape:connector-curvature="0" />
</svg>
