<?xml version="1.0" encoding="UTF-8" standalone="no"?>
<svg
   xmlns:dc="http://purl.org/dc/elements/1.1/"
   xmlns:cc="http://creativecommons.org/ns#"
   xmlns:rdf="http://www.w3.org/1999/02/22-rdf-syntax-ns#"
   xmlns:svg="http://www.w3.org/2000/svg"
   xmlns="http://www.w3.org/2000/svg"
   xmlns:sodipodi="http://sodipodi.sourceforge.net/DTD/sodipodi-0.dtd"
   xmlns:inkscape="http://www.inkscape.org/namespaces/inkscape"
   viewBox="0 0 170 40"
   height="40"
   width="170"
   id="svg2"
   version="1.1"
   sodipodi:docname="clients-5.svg"
   inkscape:version="0.92.1 r15371">
  <sodipodi:namedview
     pagecolor="#ffffff"
     bordercolor="#666666"
     borderopacity="1"
     objecttolerance="10"
     gridtolerance="10"
     guidetolerance="10"
     inkscape:pageopacity="0"
     inkscape:pageshadow="2"
     inkscape:window-width="1680"
     inkscape:window-height="987"
     id="namedview6"
     showgrid="false"
     inkscape:pagecheckerboard="true"
     fit-margin-top="0"
     fit-margin-left="0"
     fit-margin-right="0"
     fit-margin-bottom="0"
     inkscape:zoom="2.3335627"
     inkscape:cx="80.777774"
     inkscape:cy="11.458238"
     inkscape:window-x="-4"
     inkscape:window-y="-4"
     inkscape:window-maximized="1"
     inkscape:current-layer="svg2" />
  <metadata
     id="metadata8">
    <rdf:RDF>
      <cc:Work
         rdf:about="">
        <dc:format>image/svg+xml</dc:format>
        <dc:type
           rdf:resource="http://purl.org/dc/dcmitype/StillImage" />
        <dc:title></dc:title>
      </cc:Work>
    </rdf:RDF>
  </metadata>
  <defs
     id="defs6" />
  <path
     id="path12"
     d="M 0,19.944818 V 0 L 3.3663014,0.4607918 6.7326027,0.9215827 7.0290568,15.258885 7.3255109,29.596187 h 4.5127081 c 4.807905,0 6.384228,2.28901 5.205922,7.559622 -0.528073,2.362098 -1.728403,2.733826 -8.8276594,2.733826 H 0 Z m 19.09463,17.371456 c 4.151319,-15.89395 8.179674,-31.147429 8.932014,-33.8213295 0.771808,-2.7430872 1.725176,-3.3086081 5.577721,-3.3086081 3.586717,0 4.899719,0.6709318 5.755467,2.9409854 0.609769,1.6175418 0.890062,2.9409842 0.622873,2.9409842 -0.267189,0 1.114721,6.747235 3.070912,14.993854 1.956191,8.246621 3.55671,15.85642 3.55671,16.910665 0,1.185914 -1.295749,1.91681 -3.398164,1.91681 -2.824572,0 -3.596144,-0.744635 -4.57106,-4.411476 -1.056612,-3.974117 -1.621404,-4.411478 -5.696818,-4.411478 -4.075413,0 -4.640205,0.437361 -5.696817,4.411478 -1.011632,3.804932 -1.698948,4.411477 -4.998934,4.411477 -3.209373,0 -3.717706,-0.414763 -3.153904,-2.573362 z M 34.809617,18.447225 c -0.34579,-1.279304 -0.62871,-2.602748 -0.62871,-2.940984 0,-2.006463 -1.920611,-0.122846 -2.371688,2.326005 -0.409259,2.221827 -0.03178,2.940986 1.54369,2.940986 1.476084,0 1.901717,-0.679631 1.456708,-2.326007 z m 16.54607,16.317371 c -6.351913,-9.01774 -5.919398,-21.404978 1.05074,-30.0932796 3.038127,-3.7870355 4.448161,-4.48498 9.060856,-4.48498 6.622977,0 9.165179,2.2566781 7.868593,6.9848396 -0.752476,2.743994 -1.69558,3.308609 -5.526541,3.308609 -3.756539,0 -5.020161,0.723614 -6.76598,3.87454 -2.565337,4.630029 -2.697402,7.58939 -0.534337,11.973685 1.29885,2.632625 2.614613,3.268178 6.76598,3.268178 4.392254,0 5.28403,0.488767 6.036691,3.308607 1.408376,5.27647 -0.4932,6.98484 -7.774778,6.98484 -6.123659,0 -6.81714,-0.349085 -10.181224,-5.125039 z m 23.900648,0.290361 C 65.949255,22.593345 71.634361,0.1863364 84.103201,0.1863364 c 6.062136,0 10.01494,3.5937645 12.410959,11.2836526 4.62009,14.82791 -1.601137,28.419646 -13.008277,28.419646 -3.821675,0 -5.274716,-0.85156 -8.249548,-4.834678 z m 13.746002,-9.333309 c 1.180711,-2.130998 2.146747,-4.688646 2.146747,-5.683662 0,-3.275744 -4.25084,-9.558201 -6.467275,-9.558201 -3.224292,0 -5.962145,4.271855 -5.962145,9.302699 0,9.325054 6.368582,13.00348 10.282673,5.939164 z m 14.317213,11.85641 c -5.195581,-4.001609 -2.43003,-13.134307 2.92783,-9.668558 3.07579,1.989594 8.72476,2.245079 8.72476,0.394595 0,-1.2392 -3.29476,-3.441387 -7.84474,-5.243349 -3.41533,-1.352599 -6.65625,-6.487245 -6.65625,-10.545621 0,-2.164254 1.2719,-5.537768 3.02768,-8.0304259 2.56139,-3.63639 3.84801,-4.2983627 8.35437,-4.2983627 6.13733,0 9.33365,1.9312936 9.33365,5.63961 0,4.3968446 -1.92852,5.7121306 -7.30077,4.9792786 -6.95828,-0.949207 -6.5401,1.490858 0.91708,5.351019 4.27182,2.211282 6.39923,4.230991 7.2505,6.883439 1.81339,5.650316 1.49526,7.840815 -1.82292,12.551591 -2.60451,3.69759 -3.79886,4.290133 -8.54523,4.239486 -3.03464,-0.03238 -6.79933,-1.046096 -8.36596,-2.252702 z m 28.91568,1.331249 c -0.3798,-0.539179 -0.69053,-7.156396 -0.69053,-14.704926 V 10.479785 h -4.14314 c -3.87892,0 -4.14314,-0.271303 -4.14314,-4.254152 0,-5.5247385 1.15447,-6.0392966 13.54992,-6.0392966 h 10.27313 v 5.1467245 c 0,4.9016411 -0.17263,5.1467241 -3.62524,5.1467241 h -3.62525 V 25.18471 39.889635 h -3.45261 c -1.89895,0 -3.76336,-0.441147 -4.14314,-0.980328 z m 17.9536,-18.816139 V 0.1863364 h 9.83996 9.83996 v 5.1467245 5.1467241 h -5.69682 c -4.37331,0 -5.69682,0.512444 -5.69682,2.205738 0,1.63388 1.20842,2.205739 4.66103,2.205739 4.63637,0 4.66104,0.02724 4.66104,5.146723 0,5.119492 -0.0247,5.146725 -4.66104,5.146725 -3.45261,0 -4.66103,0.571858 -4.66103,2.205738 0,1.69634 1.3308,2.20574 5.76244,2.20574 H 170 l -0.32457,4.779101 -0.32458,4.7791 -9.58101,0.422806 L 150.18883,40 Z"
     style="fill:#fefefe;stroke-width:1.23414516"
     inkscape:connector-curvature="0" />
</svg>
