<?xml version="1.0" encoding="UTF-8" standalone="no"?>
<!-- Created with Inkscape (http://www.inkscape.org/) -->

<svg
   xmlns:dc="http://purl.org/dc/elements/1.1/"
   xmlns:cc="http://creativecommons.org/ns#"
   xmlns:rdf="http://www.w3.org/1999/02/22-rdf-syntax-ns#"
   xmlns:svg="http://www.w3.org/2000/svg"
   xmlns="http://www.w3.org/2000/svg"
   xmlns:sodipodi="http://sodipodi.sourceforge.net/DTD/sodipodi-0.dtd"
   xmlns:inkscape="http://www.inkscape.org/namespaces/inkscape"
   version="1.1"
   id="svg2"
   width="170"
   height="44"
   viewBox="0 0 170 44.000001"
   sodipodi:docname="clients-3.svg"
   inkscape:version="0.92.1 r15371">
  <metadata
     id="metadata8">
    <rdf:RDF>
      <cc:Work
         rdf:about="">
        <dc:format>image/svg+xml</dc:format>
        <dc:type
           rdf:resource="http://purl.org/dc/dcmitype/StillImage" />
        <dc:title></dc:title>
      </cc:Work>
    </rdf:RDF>
  </metadata>
  <defs
     id="defs6" />
  <sodipodi:namedview
     pagecolor="#ffffff"
     bordercolor="#666666"
     borderopacity="1"
     objecttolerance="10"
     gridtolerance="10"
     guidetolerance="10"
     inkscape:pageopacity="0"
     inkscape:pageshadow="2"
     inkscape:window-width="1680"
     inkscape:window-height="987"
     id="namedview4"
     showgrid="false"
     inkscape:pagecheckerboard="true"
     fit-margin-top="0"
     fit-margin-left="0"
     fit-margin-right="0"
     fit-margin-bottom="0"
     inkscape:zoom="2.3072289"
     inkscape:cx="80.399476"
     inkscape:cy="11.766345"
     inkscape:window-x="-4"
     inkscape:window-y="-4"
     inkscape:window-maximized="1"
     inkscape:current-layer="svg2" />
  <path
     style="fill:#fefefe;stroke-width:1.2918576"
     d="M 5.0734848,41.946946 C 1.5328417,37.42691 0,31.758727 0,23.186076 0,6.727839 4.0777687,0 14.053169,0 h 6.428759 v 6.518512 c 0,7.158787 -1.47247,8.760929 -2.436195,2.6507363 C 17.691629,6.924159 16.143812,4.449953 14.356418,3.271825 7.6771291,-1.130703 3.9965742,9.9134749 5.4833653,29.89704 c 0.6585645,8.851593 2.4833527,12.473286 6.2846597,12.473286 2.929791,0 4.617517,-3.027843 4.617517,-8.284 0,-3.072186 -0.639879,-4.639164 -2.151233,-5.268085 -4.007003,-1.667434 -0.96482,-4.035568 4.877259,-3.796619 3.622568,0.148166 5.969723,1.004397 6.235427,2.274646 0.249912,1.19475 -0.456089,2.037035 -1.707437,2.037035 -1.831579,0 -2.133534,0.99288 -2.133534,7.015434 v 7.015434 l -7.424699,0.301918 C 9.4372149,43.854937 6.0637315,43.21111 5.0734848,41.946946 Z M 28.674699,40.740698 c -1.726908,-2.748 -2.048193,-5.432092 -2.048193,-17.111093 0,-11.226324 -0.291165,-13.8518374 -1.536145,-13.8518374 -0.844879,0 -1.536144,-0.7333325 -1.536144,-1.6296279 0,-0.8962954 2.534638,-1.6296277 5.63253,-1.6296277 3.097892,0 5.63253,0.7333323 5.63253,1.6296277 0,0.8962954 -0.691265,1.6296279 -1.536144,1.6296279 -1.243959,0 -1.536145,2.6125784 -1.536145,13.7354344 0,14.521273 1.177362,18.857124 5.120482,18.857124 3.94312,0 5.120482,-4.335851 5.120482,-18.857124 0,-11.122856 -0.292186,-13.7354344 -1.536145,-13.7354344 -0.844879,0 -1.536144,-0.7333325 -1.536144,-1.6296279 0,-0.8962954 1.843373,-1.6296277 4.096385,-1.6296277 2.253012,0 4.096386,0.7333323 4.096386,1.6296277 0,0.8962954 -0.691265,1.6296279 -1.536145,1.6296279 -1.250763,0 -1.536144,2.7031144 -1.536144,14.5502484 0,17.576054 -0.880667,19.671938 -8.265922,19.671938 -3.68187,0 -5.601432,-0.881731 -7.095524,-3.259256 z m 19.457831,1.629628 c 0,-0.896295 0.460843,-1.629628 1.024097,-1.629628 0.610864,0 1.024096,-6.246906 1.024096,-15.481465 0,-9.234557 -0.413232,-15.4814654 -1.024096,-15.4814654 -0.563254,0 -1.024097,-0.7333325 -1.024097,-1.6296279 0,-0.9586042 3.584337,-1.6296277 8.704819,-1.6296277 h 8.70482 v 5.703697 c 0,6.684236 -1.238437,7.383551 -2.885951,1.629628 -0.86963,-3.037171 -1.954045,-4.0740694 -4.260768,-4.0740694 -2.927221,0 -3.094245,0.3518624 -3.094245,6.5185114 0,5.432093 0.341365,6.518512 2.048193,6.518512 1.137884,0 2.048192,-1.086419 2.048192,-2.444442 0,-1.344443 0.460844,-2.444442 1.024097,-2.444442 0.563253,0 1.024096,3.299997 1.024096,7.333326 0,4.033329 -0.460843,7.333326 -1.024096,7.333326 -0.563253,0 -1.024097,-1.099999 -1.024097,-2.444442 0,-1.358023 -0.910308,-2.444442 -2.048192,-2.444442 -1.711902,0 -2.048193,1.086419 -2.048193,6.616884 v 6.616886 l 3.840361,-0.505781 c 2.822727,-0.371756 4.108238,-1.477386 4.851276,-4.172442 1.476143,-5.354079 2.573423,-4.485509 2.573423,2.037035 v 5.703697 h -9.216867 c -5.461847,0 -9.216868,-0.663921 -9.216868,-1.629628 z m 20.481928,0 c 0,-0.896295 0.691265,-1.629628 1.536144,-1.629628 1.257662,0 1.536145,-2.806581 1.536145,-15.481465 0,-12.674883 -0.278483,-15.4814654 -1.536145,-15.4814654 -0.844879,0 -1.536144,-0.7333325 -1.536144,-1.6296279 0,-0.9157352 2.85557,-1.6296277 6.518518,-1.6296277 9.634782,0 14.408989,6.987113 10.534895,15.417954 -1.18638,2.581811 -1.114434,3.426972 0.512048,6.015167 1.081997,1.721763 1.89237,5.332941 1.89237,8.432755 0,5.069698 0.194942,5.37593 3.004511,4.719753 l 3.00451,-0.701706 0.323803,-15.315988 c 0.241913,-11.442584 6.1e-5,-15.3150626 -0.956318,-15.312333 -0.704066,0.00196 -1.28012,-0.7296789 -1.28012,-1.6259743 0,-0.8962954 2.304217,-1.6296277 5.120482,-1.6296277 2.816263,0 5.120483,0.7333323 5.120483,1.6296277 0,0.8962954 -0.69127,1.6296279 -1.53615,1.6296279 -1.258337,0 -1.536144,2.8175124 -1.536144,15.5798384 v 15.579839 l 3.799924,-0.505781 c 2.99493,-0.398633 3.91695,-1.302914 4.35241,-4.268618 0.77828,-5.300629 2.53868,-5.242741 2.92473,0.09618 0.60816,8.410623 2.74513,4.489597 6.21875,-11.410452 1.90877,-8.737198 3.88655,-16.6130184 4.39505,-17.5018207 1.28576,-2.2473563 2.25853,0.6301543 6.19216,18.3166347 3.2963,14.820938 3.40715,15.071055 6.68023,15.074059 l 3.32832,0.0031 V 25.259279 c 0,-12.674883 -0.27849,-15.4814657 -1.53615,-15.4814657 -0.84488,0 -1.53614,-0.7333326 -1.53614,-1.629628 0,-0.8962953 2.53464,-1.6296283 5.63253,-1.6296283 3.09789,0 5.63253,0.733333 5.63253,1.6296283 0,0.8962954 -0.69127,1.629628 -1.53615,1.629628 -1.25766,0 -1.53614,2.8065827 -1.53614,15.4814657 0,12.674884 0.27848,15.481465 1.53614,15.481465 0.84488,0 1.53615,0.733333 1.53615,1.629628 0,0.987654 -4.43775,1.629628 -11.26506,1.629628 -6.19579,0 -11.26506,-0.672222 -11.26506,-1.493826 0,-0.821603 0.52199,-1.770707 1.15999,-2.109117 0.70246,-0.372608 0.8772,-2.033065 0.44303,-4.209871 -1.04163,-5.222441 -7.24906,-5.167298 -8.11407,0.07208 -0.33295,2.016665 -0.15628,3.911107 0.3926,4.209872 0.54888,0.298767 0.99796,1.164717 0.99796,1.924336 0,2.175783 -31.762506,1.985105 -33.417541,-0.200614 -0.770952,-1.018157 -1.401732,-4.181399 -1.401732,-7.029428 0,-5.807873 -1.552836,-9.089339 -4.301205,-9.089339 -1.502008,0 -1.843373,1.358022 -1.843373,7.333325 0,5.432093 0.39826,7.333326 1.536144,7.333326 0.84488,0 1.536145,0.733333 1.536145,1.629628 0,0.896295 -2.534638,1.629628 -5.63253,1.629628 -3.097892,0 -5.63253,-0.733333 -5.63253,-1.629628 z M 121.60006,23.630995 c -0.60489,-3.136269 -1.18461,-5.5196 -1.28825,-5.296291 -0.10366,0.22331 -0.69375,2.789348 -1.31132,5.702308 -1.05613,4.981549 -0.97958,5.296291 1.28825,5.296291 2.28225,0 2.35233,-0.30476 1.31132,-5.702308 z M 81.927711,18.251833 c 0,-5.084762 -1.628743,-8.4740654 -4.072244,-8.4740654 -1.265859,0 -1.530069,1.4073554 -1.223758,6.5185114 0.336648,5.617385 0.729714,6.518512 2.843327,6.518512 2.003532,0 2.452675,-0.835585 2.452675,-4.562958 z m 65.542169,24.118493 c 0,-0.896295 0.69126,-1.629628 1.53614,-1.629628 1.25767,0 1.53615,-2.806581 1.53615,-15.481465 0,-12.674883 -0.27848,-15.4814654 -1.53615,-15.4814654 -0.84488,0 -1.53614,-0.7333325 -1.53614,-1.6296279 0,-0.8962954 1.78924,-1.6296277 3.97609,-1.6296277 3.76612,0 4.20515,0.5594184 8.31307,10.592581 2.38532,5.82592 4.51325,10.592582 4.72872,10.592582 0.21547,0 0.39176,-4.033329 0.39176,-8.962954 0,-6.880651 -0.35688,-8.9629534 -1.53615,-8.9629534 -0.84488,0 -1.53614,-0.7333325 -1.53614,-1.6296279 0,-0.8962954 1.84337,-1.6296277 4.09638,-1.6296277 2.25302,0 4.09639,0.7333323 4.09639,1.6296277 0,0.8962954 -0.69127,1.6296279 -1.53614,1.6296279 -1.26871,0 -1.53615,3.0027414 -1.53615,17.2468954 0,10.849258 -0.3824,17.044062 -1.03088,16.700091 -0.56698,-0.300743 -3.79191,-7.14518 -7.16651,-15.20986 l -6.13564,-14.663057 -0.002,12.857369 c -0.002,10.336676 0.3492,13.281792 1.79001,15.022231 1.58063,1.909329 1.27843,2.170979 -2.56024,2.21669 -2.39394,0.0285 -4.35252,-0.681505 -4.35252,-1.577801 z"
     id="path12"
     inkscape:connector-curvature="0" />
</svg>
