<?xml version="1.0" encoding="UTF-8" standalone="no"?>
<svg
   xmlns:dc="http://purl.org/dc/elements/1.1/"
   xmlns:cc="http://creativecommons.org/ns#"
   xmlns:rdf="http://www.w3.org/1999/02/22-rdf-syntax-ns#"
   xmlns:svg="http://www.w3.org/2000/svg"
   xmlns="http://www.w3.org/2000/svg"
   xmlns:sodipodi="http://sodipodi.sourceforge.net/DTD/sodipodi-0.dtd"
   xmlns:inkscape="http://www.inkscape.org/namespaces/inkscape"
   viewBox="0 0 170 43.999989"
   height="43.999989"
   width="170"
   id="svg2"
   version="1.1"
   sodipodi:docname="clients-4.svg"
   inkscape:version="0.92.1 r15371">
  <sodipodi:namedview
     pagecolor="#ffffff"
     bordercolor="#666666"
     borderopacity="1"
     objecttolerance="10"
     gridtolerance="10"
     guidetolerance="10"
     inkscape:pageopacity="0"
     inkscape:pageshadow="2"
     inkscape:window-width="1680"
     inkscape:window-height="987"
     id="namedview6"
     showgrid="false"
     inkscape:pagecheckerboard="true"
     fit-margin-top="0"
     fit-margin-left="0"
     fit-margin-right="0"
     fit-margin-bottom="0"
     inkscape:zoom="2.3489865"
     inkscape:cx="81.524521"
     inkscape:cy="14.412024"
     inkscape:window-x="-4"
     inkscape:window-y="-4"
     inkscape:window-maximized="1"
     inkscape:current-layer="svg2" />
  <metadata
     id="metadata8">
    <rdf:RDF>
      <cc:Work
         rdf:about="">
        <dc:format>image/svg+xml</dc:format>
        <dc:type
           rdf:resource="http://purl.org/dc/dcmitype/StillImage" />
        <dc:title></dc:title>
      </cc:Work>
    </rdf:RDF>
  </metadata>
  <defs
     id="defs6" />
  <path
     id="path12"
     d="M 0.83310583,43.016808 C 2.4433008,42.023307 2.684047,12.612772 1.0937637,11.173796 -1.3478096,8.9645267 0.40835468,7.3575414 5.2642882,7.3575414 c 5.0412418,0 6.8628358,1.7995398 3.6492094,3.6050266 -1.2388095,0.695992 -1.5639467,3.903476 -1.5639467,15.428339 v 14.549678 h 4.2032481 c 2.774401,0 4.407258,-0.778376 4.80339,-2.289753 0.932493,-3.557785 2.646631,-2.69484 2.274163,1.144876 -0.314812,3.24534 -0.850325,3.450904 -9.7168544,3.729935 C 3.752473,43.688059 0.11629688,43.459083 0.83310583,43.016808 Z M 22.381976,37.505955 c 1.230478,-3.568198 3.629881,-11.802753 5.332005,-18.299011 1.702124,-6.496258 3.563955,-11.8176971 4.137402,-11.8254212 0.573447,-0.00779 2.413421,4.9639342 4.088832,11.0481262 1.675409,6.084195 4.096265,14.325069 5.379678,18.313055 l 2.333479,7.250885 h -4.043667 c -3.01435,0 -3.90279,-0.537498 -3.490229,-2.11156 0.304391,-1.161358 -0.155577,-4.595988 -1.022152,-7.63251 -1.2967,-4.543705 -2.110671,-5.52095 -4.598528,-5.52095 -2.581906,0 -3.273523,0.933975 -4.740492,6.401662 -1.345111,5.013501 -1.435928,6.663496 -0.418814,7.609135 0.798709,0.742583 0.04871,1.216472 -1.948007,1.230847 l -3.246743,0.02337 z m 9.756006,-15.791266 c -1.106112,-3.55429 -1.310348,-3.671813 -1.989628,-1.144876 -1.192673,4.436767 -1.040767,5.105752 1.159361,5.105752 1.842138,0 1.930993,-0.423891 0.830267,-3.960876 z m 14.623027,20.447097 c 1.561236,-2.285784 1.75475,-31.751241 0.208526,-31.751241 -0.573447,0 -1.042631,-0.6869255 -1.042631,-1.5265016 0,-0.8395761 1.53491,-1.526502 3.410913,-1.526502 2.988643,0 4.118067,1.3300656 9.123022,10.7437196 l 5.71211,10.74372 0.319877,-8.806692 c 0.190346,-5.240475 -0.126309,-9.024443 -0.781973,-9.344426 -2.544752,-1.241912 -0.814718,-3.3363216 2.755885,-3.3363216 3.000461,0 3.5797,0.4070677 2.606578,1.8318024 -0.818659,1.1985862 -1.251158,7.5307422 -1.251158,18.3180232 0,12.420326 -0.33079,16.486222 -1.341275,16.486222 -0.737701,0 -4.608469,-6.170633 -8.601707,-13.712517 L 50.618744,16.568556 50.312449,28.136027 c -0.190833,7.207018 0.152062,12.376061 0.909639,13.712515 1.002876,1.769191 0.608956,2.145047 -2.248152,2.145047 -2.694288,0 -3.186049,-0.407068 -2.212927,-1.831803 z M 73.833737,39.5393 c -3.085354,-4.03614 -3.405001,-5.265212 -3.405001,-13.092562 0,-8.025677 0.276189,-9.008846 3.894556,-13.863734 4.045914,-5.4285438 6.592366,-6.1874519 14.40844,-4.2940796 3.372679,0.8170022 3.715204,1.3649095 3.806671,6.0892086 0.119336,6.163812 -0.895974,6.64138 -2.836047,1.333978 -4.471793,-12.233349 -16.028263,-1.04063 -14.140104,13.695031 1.305097,10.185308 7.642896,14.839873 12.652594,9.292237 3.475839,-3.849072 5.288102,-2.796719 2.545198,1.477955 -2.015729,3.141411 -3.427756,3.816255 -7.985029,3.816255 -4.643809,0 -6.085176,-0.718049 -8.941278,-4.454289 z M 98.59404,40.684285 C 92.133872,33.24443 91.701708,21.654304 97.546161,12.581469 c 2.976019,-4.6199289 3.979569,-5.2239276 8.679509,-5.2239276 12.3239,0 18.01809,19.4346876 9.39372,32.0614946 -2.68314,3.92834 -3.90338,4.574553 -8.63817,4.574553 -4.07724,0 -6.26226,-0.862134 -8.38718,-3.309304 z m 12.59636,-2.956969 c 1.47179,-2.381048 1.9862,-5.502387 1.9862,-12.051751 0,-10.220377 -2.23963,-15.26502 -6.7771,-15.26502 -4.53837,0 -6.742337,4.989892 -6.742337,15.26502 0,6.577181 0.512977,9.724607 1.968827,12.079865 2.52908,4.091546 7.02612,4.078328 9.56441,-0.02812 z m 8.46806,5.039225 c 1.83212,-1.70445 4.20304,-31.21213 2.57184,-32.008203 -2.54738,-1.2431929 -1.10333,-3.4007966 2.27608,-3.4007966 3.32526,0 3.67692,0.5424654 6.67967,10.3038886 l 3.16962,10.303888 3.18173,-10.303888 c 2.91545,-9.4416333 3.44711,-10.3038886 6.35322,-10.3038886 2.96425,0 4.39513,2.1701867 2.18068,3.3074216 -1.56938,0.805958 1.31456,30.201777 3.12777,31.881203 1.03916,0.962485 -0.0771,1.407986 -3.5679,1.424047 -3.9327,0.01809 -4.842,-0.407615 -4.02574,-1.884752 0.7134,-1.29099 0.66612,-5.610954 -0.14622,-13.356892 L 140.25856,17.279804 137.1439,28.4782 c -1.71308,6.159118 -3.58386,10.995664 -4.15731,10.74788 -0.57344,-0.247785 -2.52189,-5.202022 -4.32989,-11.009419 l -3.28727,-10.558903 -0.73706,11.516009 c -0.4054,6.333805 -0.42329,12.259366 -0.0397,13.167915 0.44711,1.059192 -0.54059,1.64352 -2.75276,1.628531 -2.02917,-0.01374 -2.92758,-0.509479 -2.18139,-1.203672 z m 33.46727,-14.902394 c 0.22174,-10.870158 -0.0751,-16.849044 -0.90964,-18.321244 -1.05944,-1.8689864 0.13818,-2.1853616 8.27257,-2.1853616 H 170 l -0.0823,4.9611316 c -0.0453,2.728622 -0.35021,3.930742 -0.67765,2.671378 -0.89956,-3.45961 -2.49752,-4.530413 -6.79917,-4.55613 -3.86909,-0.02313 -3.90986,0.04031 -3.90986,6.082632 0,5.940679 0.0972,6.106008 3.58767,6.106008 1.97322,0 3.87765,-0.686926 4.23206,-1.526502 1.27018,-3.008972 2.60658,-1.443685 2.60658,3.053004 0,2.518728 -0.46919,4.579506 -1.04263,4.579506 -0.57345,0 -1.04263,-0.686926 -1.04263,-1.526502 0,-0.839576 -1.87674,-1.526502 -4.17053,-1.526502 h -4.17052 v 7.63251 7.63251 h 5.13671 c 4.01536,0 5.24078,-0.583159 5.61351,-2.671379 0.29337,-1.643526 0.52336,-1.056182 0.59777,1.526502 L 170,43.993589 l -8.60171,0.0032 -8.6017,0.0032 0.32914,-16.135883 z M 97.223726,5.2890656 C 98.198239,4.204806 100.91859,2.388495 103.26895,1.252819 c 3.92037,-1.89429599 4.66724,-1.78471799 9.04119,1.326512 5.70477,4.057848 5.21084,6.1065694 -0.77492,3.2142908 -3.4007,-1.6431908 -5.18964,-1.6929028 -8.8825,-0.2468338 -5.980471,2.3418525 -7.692405,2.2605845 -5.428994,-0.2577224 z"
     style="fill:#fefefe;stroke-width:1.26157784"
     inkscape:connector-curvature="0" />
</svg>
