<?xml version="1.0" encoding="UTF-8" standalone="no"?>
<svg
   xmlns:dc="http://purl.org/dc/elements/1.1/"
   xmlns:cc="http://creativecommons.org/ns#"
   xmlns:rdf="http://www.w3.org/1999/02/22-rdf-syntax-ns#"
   xmlns:svg="http://www.w3.org/2000/svg"
   xmlns="http://www.w3.org/2000/svg"
   xmlns:sodipodi="http://sodipodi.sourceforge.net/DTD/sodipodi-0.dtd"
   xmlns:inkscape="http://www.inkscape.org/namespaces/inkscape"
   viewBox="0 0 170 40.19495"
   height="40.19495"
   width="170"
   id="svg2"
   version="1.1"
   sodipodi:docname="clients-1.svg"
   inkscape:version="0.92.1 r15371">
  <sodipodi:namedview
     pagecolor="#ffffff"
     bordercolor="#666666"
     borderopacity="1"
     objecttolerance="10"
     gridtolerance="10"
     guidetolerance="10"
     inkscape:pageopacity="0"
     inkscape:pageshadow="2"
     inkscape:window-width="1680"
     inkscape:window-height="987"
     id="namedview6"
     showgrid="false"
     fit-margin-top="0"
     fit-margin-left="0"
     fit-margin-right="0"
     fit-margin-bottom="0"
     inkscape:zoom="2.3353659"
     inkscape:cx="82"
     inkscape:cy="20.097474"
     inkscape:window-x="-4"
     inkscape:window-y="-4"
     inkscape:window-maximized="1"
     inkscape:current-layer="svg2" />
  <metadata
     id="metadata8">
    <rdf:RDF>
      <cc:Work
         rdf:about="">
        <dc:format>image/svg+xml</dc:format>
        <dc:type
           rdf:resource="http://purl.org/dc/dcmitype/StillImage" />
        <dc:title></dc:title>
      </cc:Work>
    </rdf:RDF>
  </metadata>
  <defs
     id="defs6" />
  <path
     id="path12"
     d="M 5.0214298,36.53082 C 1.1433826,31.665375 0,27.538991 0,18.408832 0,11.422015 0.42594309,9.829369 3.5243901,5.2307691 6.7375156,0.461968 7.5843395,0.003021 13.112805,0.034209 c 6.374021,0.03596 9.438357,2.304566 11.5994,8.5873391 0.943172,2.7420689 0.723435,3.5466709 -1.437305,5.2629469 -2.260089,1.795189 -2.823599,1.6455 -4.946069,-1.313856 C 13.362899,5.6466471 6.2195121,9.873861 6.2195121,19.736524 c 0,9.963724 7.1359389,14.427825 11.8586579,7.418541 2.302126,-3.41673 2.58269,-3.481308 5.13581,-1.182128 1.485359,1.337621 2.700654,2.892278 2.700654,3.454794 0,0.562515 -1.648853,3.171395 -3.664118,5.797512 -3.099252,4.038674 -4.497514,4.773579 -9.070122,4.767115 C 9.0913086,39.986558 7.1037609,39.143337 5.0214298,36.53082 Z M 29.02439,20 V 0 h 3.628049 c 3.541667,0 3.628049,0.14652 3.628049,6.1538461 v 6.1538459 h 5.469466 5.469466 L 46.824002,6.1538461 C 46.428832,0.003842 46.430918,0 50.165512,0 h 3.736927 V 20.097474 40.194949 L 50.533537,39.712858 C 47.20161,39.23606 47.164634,39.142091 47.164634,31.15112 v -8.079651 l -5.442073,0.0028 -5.442073,0.0027 v 8.461539 8.461538 H 32.652439 29.02439 Z m 28.413126,16.155892 c 0.357538,-2.114258 2.943233,-11.114258 5.745988,-20 L 68.279422,0 l 4.473094,0.0058 4.473094,0.0058 5.182927,18.612425 c 2.850609,10.236832 5.338414,19.234237 5.528455,19.994231 0.190041,0.759994 -1.251092,1.381806 -3.202515,1.381806 -2.778657,0 -3.804087,-0.834032 -4.728793,-3.846154 -1.069955,-3.485252 -1.768847,-3.846154 -7.448142,-3.846154 -5.731421,0 -6.351649,0.328913 -7.252664,3.846154 -0.801428,3.128488 -1.687997,3.846154 -4.751352,3.846154 -3.499004,0 -3.719979,-0.272609 -3.11601,-3.844108 z M 74.478819,16.923077 c -0.596236,-2.538462 -1.259687,-4.615385 -1.474335,-4.615385 -0.214648,0 -1.113922,2.076923 -1.998386,4.615385 l -1.608118,4.615384 h 3.082453 c 2.974795,0 3.044591,-0.161198 1.998386,-4.615384 z M 90.182927,20 V 0 h 4.652747 c 4.509468,0 4.796747,0.293729 9.329266,9.538589 l 4.67652,9.538589 V 9.538589 0 h 3.62805 3.62805 V 20 40 H 113.13 c -2.54482,0 -3.87378,-1.890846 -9.32926,-13.273732 L 97.439028,13.452536 V 26.726268 40 h -3.628052 -3.628049 z m 33.170733,0 V 0 h 9.84756 9.84756 V 4.6153841 9.230769 h -6.7378 c -5.29811,0 -6.73781,0.493097 -6.73781,2.307692 0,1.794872 1.38211,2.307693 6.21951,2.307693 h 6.21952 v 5.384615 5.384616 h -6.21952 c -5.52845,0 -6.21951,0.34188 -6.21951,3.076923 0,2.803418 0.69106,3.076923 7.77439,3.076923 h 7.77439 V 35.384615 40 H 134.2378 123.35366 Z m 26.95122,0 V 0 h 3.62805 3.62805 V 15.384615 30.769231 H 163.78049 170 V 35.384615 40 h -9.84756 -9.84756 z"
     style="fill:#fefefe;stroke-width:1.26283288"
     inkscape:connector-curvature="0" />
</svg>
